<?xml version="1.0" encoding="UTF-8"?>
<svg xmlns="http://www.w3.org/2000/svg" xmlns:xlink="http://www.w3.org/1999/xlink" width="779.5pt" height="238.3pt" viewBox="0 0 779.5 238.3" version="1.1">
<g id="surface1">
<path style=" stroke:none;fill-rule:evenodd;fill:rgb(72.459412%,3.529358%,3.529358%);fill-opacity:1;" d="M 188.269531 77.699219 L 186.382813 95.523438 C 185.984375 95.335938 185.566406 95.128906 185.132813 94.894531 C 184.699219 94.660156 184.28125 94.449219 183.882813 94.261719 C 182.5625 93.792969 181.160156 93.394531 179.667969 93.070313 C 178.179688 92.742188 176.21875 92.578125 173.785156 92.578125 L 142.832031 92.578125 C 140.308594 92.578125 138.550781 92.835938 137.558594 93.347656 C 136.566406 93.863281 135.859375 94.917969 135.4375 96.507813 L 134.023438 101.839844 C 133.578125 103.523438 133.722656 104.601563 134.453125 105.066406 C 135.183594 105.535156 136.8125 105.769531 139.335938 105.769531 L 162.988281 105.769531 C 170.019531 105.769531 175.011719 107.148438 177.976563 109.910156 C 180.9375 112.667969 181.550781 117.324219 179.816406 123.875 L 174.011719 145.765625 C 172.128906 152.878906 169.21875 158.328125 165.285156 162.117188 C 161.351563 165.90625 155.421875 167.800781 147.492188 167.800781 L 87.75 167.800781 L 89.75 149.558594 C 91.148438 150.398438 92.699219 151.171875 94.40625 151.871094 C 96.113281 152.574219 98.585938 152.925781 101.832031 152.925781 L 133.730469 152.925781 C 136.34375 152.925781 138.09375 152.691406 138.984375 152.222656 C 139.875 151.753906 140.542969 150.679688 140.988281 148.996094 L 142.625 142.820313 C 143.046875 141.230469 142.941406 140.175781 142.3125 139.664063 C 141.683594 139.148438 140.0625 138.890625 137.449219 138.890625 L 110.550781 138.890625 C 103.976563 138.890625 99.65625 137.511719 97.59375 134.75 C 95.53125 131.992188 95.492188 126.867188 97.476563 119.382813 L 102.796875 99.3125 C 104.707031 92.109375 107.738281 86.707031 111.890625 83.105469 C 116.046875 79.503906 121.003906 77.699219 126.773438 77.699219 Z M 107.0625 189.101563 C 108.894531 190.984375 110.722656 192.871094 112.554688 194.753906 C 204.304688 207.632813 278.652344 203.863281 330.789063 178.847656 C 326.859375 178.578125 322.929688 178.308594 319 178.039063 C 263.042969 201.480469 188.019531 199.28125 107.0625 189.101563 Z M 439.863281 177.640625 C 438.679688 182.859375 437.496094 188.082031 436.3125 193.304688 C 375.429688 221.640625 303.707031 232.164063 232.046875 236.738281 C 116.941406 238.265625 29.546875 223.132813 9.371094 182 C 0.09375 151.972656 39.984375 134.617188 86.070313 118.863281 C 86.070313 123.867188 86.070313 128.875 86.070313 133.878906 C 51.679688 144.703125 18.335938 160.351563 31.171875 190.394531 C 51.410156 222.25 133.242188 232.527344 229.703125 229.714844 C 295.378906 226.046875 360.527344 216.960938 422.75 177.882813 C 428.453125 177.800781 434.160156 177.71875 439.863281 177.640625 Z M 600.855469 103.441406 C 590.683594 103.441406 580.511719 103.441406 570.335938 103.441406 C 568.652344 105.707031 568.574219 108.070313 570.335938 110.546875 C 582.714844 110.476563 599.972656 108.273438 600.855469 103.441406 Z M 307.539063 93.4375 C 320.539063 93.4375 333.535156 93.4375 346.535156 93.4375 C 303.28125 79.921875 283.109375 52.195313 321.023438 35.0625 C 404.070313 7.300781 517.648438 9.050781 607.480469 48.789063 C 602.609375 52.070313 597.738281 55.355469 592.867188 58.636719 C 607.289063 58.609375 621.714844 58.582031 636.140625 58.554688 C 635.765625 56.511719 635.386719 54.464844 635.011719 52.421875 C 679.441406 32.230469 719.921875 21.90625 754.019531 27.554688 C 769.878906 33 763.648438 47.425781 749.011719 55.972656 C 734.722656 64 720.1875 70.792969 705.253906 75.589844 C 705.253906 77.339844 705.253906 79.089844 705.253906 80.839844 C 707.40625 80.867188 709.558594 80.894531 711.710938 80.921875 C 733.671875 72.453125 754.226563 63.023438 767.984375 48.949219 C 779.515625 35.289063 771.53125 25.0625 753.613281 20.933594 C 718.78125 16.050781 671.59375 26.214844 616.84375 46.039063 C 524.320313 4.085938 424.152344 -0.0351563 318.277344 28.199219 C 278.003906 40.859375 264.464844 68.285156 307.539063 93.4375 Z M 625.515625 93.847656 L 552.546875 93.847656 C 548.324219 93.847656 544.957031 93.980469 542.4375 94.242188 C 539.917969 94.503906 537.46875 94.988281 535.089844 95.6875 C 533.601563 96.214844 532.054688 96.785156 530.457031 97.398438 C 528.859375 98.011719 526.933594 98.757813 524.675781 99.632813 L 538.871094 65.1875 L 568.5 65.1875 L 696.386719 65.265625 L 696.445313 89.710938 C 648.980469 135.292969 610.652344 183.257813 582.996094 234.003906 L 520.203125 234.003906 C 545.128906 182.707031 583.347656 137.386719 625.515625 93.847656 Z M 493.0625 173.773438 L 507.917969 173.773438 L 507.523438 176.871094 L 507.644531 176.871094 C 507.65625 176.832031 507.675781 176.800781 507.703125 176.777344 C 507.726563 176.757813 507.746094 176.726563 507.757813 176.683594 C 508.273438 175.96875 508.882813 175.304688 509.59375 174.691406 C 510.304688 174.082031 511.167969 173.773438 512.179688 173.773438 L 523.929688 173.773438 C 527.300781 173.773438 529.476563 174.746094 530.464844 176.683594 C 531.453125 178.621094 531.507813 181.257813 530.625 184.585938 L 527.421875 196.660156 C 526.933594 198.515625 526.703125 199.875 526.738281 200.738281 C 526.773438 201.601563 526.882813 202.371094 527.070313 203.046875 C 527.089844 203.128906 527.109375 203.203125 527.132813 203.265625 C 527.15625 203.328125 527.179688 203.402344 527.195313 203.488281 L 509.539063 203.488281 C 509.605469 203.402344 509.664063 203.328125 509.722656 203.265625 C 509.777344 203.203125 509.839844 203.128906 509.902344 203.046875 C 510.445313 202.371094 510.964844 201.601563 511.457031 200.738281 C 511.949219 199.875 512.441406 198.515625 512.933594 196.660156 L 516.804688 182.058594 C 517.050781 181.128906 517.046875 180.488281 516.796875 180.128906 C 516.546875 179.769531 515.976563 179.589844 515.082031 179.589844 L 509.847656 179.589844 C 508.953125 179.589844 508.289063 179.769531 507.847656 180.128906 C 507.410156 180.488281 507.066406 181.128906 506.820313 182.058594 L 502.949219 196.660156 C 502.457031 198.515625 502.230469 199.875 502.265625 200.738281 C 502.296875 201.601563 502.410156 202.371094 502.597656 203.046875 C 502.613281 203.128906 502.636719 203.203125 502.660156 203.265625 C 502.683594 203.328125 502.703125 203.402344 502.722656 203.488281 L 485.1875 203.488281 C 485.25 203.402344 485.3125 203.328125 485.367188 203.265625 C 485.425781 203.203125 485.484375 203.128906 485.546875 203.046875 C 486.09375 202.371094 486.609375 201.601563 487.105469 200.738281 C 487.597656 199.875 488.089844 198.515625 488.582031 196.660156 L 492.835938 180.601563 C 493.328125 178.75 493.558594 177.390625 493.523438 176.523438 C 493.488281 175.660156 493.375 174.890625 493.191406 174.21875 C 493.171875 174.132813 493.152344 174.058594 493.125 173.996094 C 493.101563 173.933594 493.082031 173.859375 493.0625 173.773438 Z M 487.699219 182.753906 L 484.582031 194.511719 C 483.769531 197.585938 482.597656 199.851563 481.078125 201.308594 C 479.554688 202.761719 477.171875 203.488281 473.921875 203.488281 L 451.398438 203.488281 C 448.191406 203.488281 446.203125 202.761719 445.429688 201.308594 C 444.660156 199.851563 444.679688 197.585938 445.496094 194.511719 L 448.613281 182.753906 C 449.441406 179.632813 450.621094 177.359375 452.160156 175.925781 C 453.695313 174.492188 456.066406 173.773438 459.273438 173.773438 L 481.800781 173.773438 C 485.046875 173.773438 487.050781 174.492188 487.804688 175.925781 C 488.5625 177.359375 488.527344 179.632813 487.699219 182.753906 Z M 463.183594 181.992188 L 459.664063 195.269531 C 459.441406 196.113281 459.429688 196.722656 459.632813 197.101563 C 459.839844 197.480469 460.324219 197.671875 461.097656 197.671875 L 467.0625 197.671875 C 467.914063 197.671875 468.542969 197.480469 468.949219 197.101563 C 469.355469 196.722656 469.667969 196.113281 469.890625 195.269531 L 473.410156 181.992188 C 473.632813 181.152344 473.644531 180.539063 473.441406 180.160156 C 473.238281 179.78125 472.707031 179.589844 471.855469 179.589844 L 465.890625 179.589844 C 465.117188 179.589844 464.53125 179.78125 464.125 180.160156 C 463.71875 180.539063 463.40625 181.152344 463.183594 181.992188 Z M 489.632813 101.839844 L 548.023438 101.839844 C 555.683594 101.839844 560.660156 103.710938 562.957031 107.453125 C 565.253906 111.195313 565.199219 117.605469 562.792969 126.679688 L 555.167969 155.453125 C 554.273438 158.820313 553.886719 161.390625 554 163.171875 C 554.113281 164.949219 554.449219 166.492188 555.003906 167.800781 L 522.835938 167.800781 L 523.148438 160.503906 L 522.875 160.503906 C 521.296875 163.402344 519.5 165.34375 517.480469 166.328125 C 515.464844 167.308594 512.292969 167.800781 507.96875 167.800781 L 485.257813 167.800781 C 478.140625 167.800781 473.726563 166.1875 472.011719 162.960938 C 470.300781 159.730469 470.351563 154.703125 472.160156 147.871094 L 473.425781 143.101563 C 475.261719 136.175781 477.882813 131.125 481.296875 127.945313 C 484.707031 124.761719 489.972656 123.171875 497.089844 123.171875 L 526.148438 123.171875 C 528.402344 123.171875 529.953125 122.84375 530.800781 122.191406 C 531.652344 121.535156 532.273438 120.457031 532.671875 118.960938 C 533.070313 117.464844 533.015625 116.390625 532.515625 115.734375 C 532.011719 115.078125 530.632813 114.75 528.382813 114.75 L 496.617188 114.75 C 494.277344 114.75 492.277344 114.890625 490.628906 115.171875 C 488.976563 115.453125 487.355469 115.875 485.765625 116.4375 C 485.355469 116.621094 484.945313 116.808594 484.535156 116.996094 C 484.125 117.183594 483.667969 117.371094 483.167969 117.558594 Z M 528.132813 136.082031 L 513.941406 136.082031 C 511.484375 136.175781 509.65625 136.527344 508.457031 137.136719 C 507.261719 137.746094 506.339844 139.265625 505.695313 141.699219 L 503.6875 149.277344 C 503.066406 151.613281 503.1875 153.113281 504.050781 153.765625 C 504.914063 154.421875 506.546875 154.796875 508.957031 154.890625 L 516.390625 154.890625 C 519.453125 154.890625 521.484375 154.375 522.476563 153.347656 C 523.46875 152.316406 524.523438 149.695313 525.640625 145.488281 Z M 426.832031 152.644531 L 442.679688 92.859375 C 443.773438 88.742188 444.28125 85.722656 444.203125 83.804688 C 444.125 81.886719 443.878906 80.179688 443.464844 78.683594 C 443.425781 78.496094 443.378906 78.332031 443.324219 78.191406 C 443.273438 78.050781 443.226563 77.886719 443.183594 77.699219 L 478.597656 77.699219 L 477.816406 80.648438 L 458.769531 152.503906 L 458.730469 152.644531 C 457.640625 156.761719 457.132813 159.777344 457.210938 161.695313 C 457.289063 163.613281 457.53125 165.320313 457.949219 166.820313 C 457.988281 167.007813 458.035156 167.167969 458.085938 167.308594 C 458.140625 167.449219 458.1875 167.613281 458.226563 167.800781 L 419.300781 167.800781 C 419.441406 167.613281 419.574219 167.449219 419.703125 167.308594 C 419.828125 167.167969 419.960938 167.007813 420.101563 166.820313 C 421.308594 165.320313 422.460938 163.613281 423.554688 161.695313 C 424.648438 159.777344 425.742188 156.761719 426.832031 152.644531 Z M 379.257813 152.644531 L 388.707031 116.996094 C 389.796875 112.878906 390.304688 109.863281 390.226563 107.945313 C 390.148438 106.027344 389.902344 104.320313 389.488281 102.824219 C 389.449219 102.636719 389.402344 102.472656 389.347656 102.332031 C 389.296875 102.191406 389.25 102.027344 389.210938 101.839844 L 424.621094 101.839844 L 411.15625 152.644531 C 410.0625 156.761719 409.554688 159.777344 409.632813 161.695313 C 409.710938 163.613281 409.957031 165.320313 410.371094 166.820313 C 410.410156 167.007813 410.457031 167.167969 410.511719 167.308594 C 410.5625 167.449219 410.609375 167.613281 410.652344 167.800781 L 371.722656 167.800781 C 371.863281 167.613281 371.996094 167.449219 372.125 167.308594 C 372.253906 167.167969 372.386719 167.007813 372.527344 166.820313 C 373.734375 165.320313 374.882813 163.613281 375.976563 161.695313 C 377.074219 159.777344 378.164063 156.761719 379.257813 152.644531 Z M 399.390625 77.699219 L 430.75 77.699219 L 426.136719 95.105469 L 394.78125 95.105469 Z M 368.703125 141.976563 L 315.042969 141.976563 L 313.40625 148.152344 C 312.878906 150.492188 313.03125 152.199219 313.875 153.277344 C 314.714844 154.351563 316.398438 154.890625 318.917969 154.890625 L 349.871094 154.890625 C 351.675781 154.890625 353.285156 154.84375 354.707031 154.75 C 356.128906 154.65625 357.566406 154.421875 359.015625 154.046875 C 359.964844 153.859375 360.9375 153.601563 361.921875 153.277344 C 362.910156 152.949219 363.964844 152.550781 365.078125 152.082031 L 358.480469 167.800781 L 294.683594 167.800781 C 287.5625 167.800781 283.148438 166.1875 281.4375 162.960938 C 279.722656 159.730469 279.773438 154.703125 281.582031 147.871094 L 288.503906 121.769531 C 290.339844 114.84375 292.960938 109.792969 296.371094 106.613281 C 299.785156 103.429688 305.050781 101.839844 312.167969 101.839844 L 360.960938 101.839844 C 368.167969 101.839844 372.613281 103.429688 374.292969 106.613281 C 375.972656 109.792969 375.894531 114.84375 374.058594 121.769531 Z M 318.464844 129.066406 L 340.769531 129.066406 L 343.148438 120.085938 C 343.644531 118.214844 343.6875 116.855469 343.28125 116.015625 C 342.875 115.171875 341.769531 114.75 339.96875 114.75 L 326.855469 114.75 C 325.144531 114.75 323.839844 115.171875 322.941406 116.015625 C 322.039063 116.855469 321.34375 118.214844 320.847656 120.085938 Z M 200.300781 77.699219 L 235.710938 77.699219 L 227.601563 108.296875 L 227.871094 108.296875 C 229.121094 106.984375 230.148438 105.910156 230.957031 105.066406 C 231.765625 104.226563 232.503906 103.570313 233.167969 103.101563 C 233.742188 102.636719 234.347656 102.308594 234.984375 102.121094 C 235.617188 101.933594 236.386719 101.839844 237.289063 101.839844 L 262.429688 101.839844 C 269.90625 101.839844 274.742188 103.992188 276.9375 108.296875 C 279.128906 112.601563 279.246094 118.449219 277.285156 125.839844 L 270.179688 152.644531 C 269.089844 156.761719 268.582031 159.777344 268.660156 161.695313 C 268.738281 163.613281 268.984375 165.320313 269.398438 166.820313 C 269.4375 167.007813 269.484375 167.167969 269.539063 167.308594 C 269.589844 167.449219 269.636719 167.613281 269.679688 167.800781 L 230.480469 167.800781 C 230.621094 167.613281 230.753906 167.449219 230.882813 167.308594 C 231.007813 167.167969 231.140625 167.007813 231.28125 166.820313 C 232.488281 165.320313 233.640625 163.613281 234.734375 161.695313 C 235.828125 159.777344 236.921875 156.761719 238.011719 152.644531 L 246.605469 120.226563 C 247.152344 118.167969 247.148438 116.738281 246.59375 115.945313 C 246.039063 115.148438 244.769531 114.75 242.785156 114.75 L 231.164063 114.75 C 229.179688 114.75 227.699219 115.148438 226.722656 115.945313 C 225.746094 116.738281 224.984375 118.167969 224.441406 120.226563 L 215.847656 152.644531 C 214.753906 156.761719 214.25 159.777344 214.324219 161.695313 C 214.402344 163.613281 214.648438 165.320313 215.0625 166.820313 C 215.101563 167.007813 215.148438 167.167969 215.203125 167.308594 C 215.253906 167.449219 215.300781 167.613281 215.34375 167.800781 L 176.417969 167.800781 C 176.554688 167.613281 176.691406 167.449219 176.816406 167.308594 C 176.945313 167.167969 177.078125 167.007813 177.21875 166.820313 C 178.425781 165.320313 179.578125 163.613281 180.671875 161.695313 C 181.765625 159.777344 182.855469 156.761719 183.949219 152.644531 L 199.796875 92.859375 C 200.886719 88.742188 201.394531 85.722656 201.316406 83.804688 C 201.242188 81.886719 200.996094 80.179688 200.582031 78.683594 C 200.539063 78.496094 200.492188 78.332031 200.441406 78.191406 C 200.386719 78.050781 200.339844 77.886719 200.300781 77.699219 Z M 200.300781 77.699219 "/>
</g>
</svg>
