<?xml version="1.0" encoding="UTF-8"?>
<svg xmlns="http://www.w3.org/2000/svg" xmlns:xlink="http://www.w3.org/1999/xlink" width="780.1pt" height="545.6pt" viewBox="0 0 780.1 545.6" version="1.1">
<g id="surface1">
<path style=" stroke:none;fill-rule:evenodd;fill:rgb(100%,0%,0%);fill-opacity:1;" d="M 254.382813 131.605469 C 261.894531 117.714844 287.4375 94.3125 300.964844 84.128906 C 331.929688 60.808594 340.929688 62.742188 361.378906 50.714844 L 199.84375 50.742188 C 65.238281 50.96875 12.644531 224.777344 82.871094 284.847656 C 107.078125 305.550781 125.578125 306.605469 165.222656 306.71875 C 182.824219 306.769531 193.472656 311.75 199.664063 324.957031 C 206.085938 338.65625 202.691406 353.960938 196.265625 365.726563 C 180.523438 394.53125 156.847656 390.839844 117.304688 390.839844 L 15.515625 391.300781 L 0 476.742188 L 130.511719 476.664063 C 269.78125 476.453125 325.949219 285.96875 233.929688 232.828125 C 208.367188 218.066406 190.464844 222.089844 158.519531 220.589844 C 107.339844 218.191406 122.816406 131.828125 180.035156 131.867188 Z M 426.003906 197.054688 C 333.140625 212.164063 360.300781 344.152344 445.101563 330.179688 C 478.027344 324.753906 506.816406 294.683594 501.421875 254.09375 C 497.089844 221.5 465.21875 190.671875 426.003906 197.054688 Z M 304.097656 278.476563 C 295.773438 201.433594 353.308594 140.253906 419.527344 133.34375 C 496.203125 125.347656 558.566406 182.109375 564.871094 248.75 C 572.175781 325.992188 516.289063 387.335938 449.121094 393.894531 C 372.378906 401.386719 311.382813 345.894531 304.097656 278.476563 Z M 227.464844 215.746094 C 237.910156 225.359375 242.628906 219.648438 264.941406 244.742188 C 274.632813 255.640625 283.003906 272.53125 287.089844 290.105469 C 300.546875 348.007813 272.878906 388.664063 270.886719 400.925781 C 288.121094 416.523438 296.652344 428.457031 319.34375 442.890625 C 480.738281 545.578125 682.65625 402.171875 639.84375 203.355469 C 600.492188 20.601563 347.449219 -0.0625 254.734375 150.128906 C 245.464844 165.152344 229.726563 194.996094 227.464844 215.746094 Z M 517.089844 51.058594 C 527.164063 56.347656 539.589844 60.152344 549.816406 65.492188 C 574.949219 78.625 611.222656 108.625 621.945313 131.894531 L 682.808594 132.53125 C 705.691406 135.460938 697.003906 156.421875 693.847656 173.144531 L 635.511719 477.039063 C 662.722656 476.988281 689.933594 476.941406 717.144531 476.890625 L 775.921875 162.824219 C 780.1875 106.964844 733.113281 55.007813 685.183594 50.671875 Z M 517.089844 51.058594 "/>
</g>
</svg>
